<svg width="585" height="411" viewBox="0 0 585 411" fill="none" xmlns="http://www.w3.org/2000/svg"><g clip-path="url(#clip0_345_46462)"><path opacity="0.3" d="M355.431 241.802C352.441 241.802 329.35 235.509 330.014 232.151C333.578 214.125 368.268 204.03 384.994 204.03C387.478 204.03 389.903 204.327 392.241 204.891C398.463 184.009 415.656 169 435.893 169C458.583 169 477.448 187.868 481.31 212.729C487.817 207.258 495.835 204.03 504.508 204.03C520.165 204.03 533.689 214.552 540.043 229.793H565.215C568.093 229.793 570.427 232.481 570.427 235.797C570.427 239.113 568.093 241.802 565.215 241.802H355.431Z" fill="#DDF4FF"/><path opacity="0.5" d="M541.827 114.31C544.23 114.31 546.16 111.959 545.626 109.27C542.761 94.8321 531.508 84.057 518.062 84.057C516.065 84.057 514.117 84.2947 512.236 84.7468C507.236 68.0213 493.414 56 477.146 56C458.907 56 443.742 71.1126 440.638 91.0241C435.407 86.6427 428.961 84.057 421.99 84.057C409.403 84.057 398.532 92.4845 393.425 104.692H373.19C370.876 104.692 369 106.845 369 109.501C369 112.157 370.876 114.31 373.19 114.31H541.827Z" fill="#DDF4FF"/><path opacity="0.6" d="M269.748 100.167C273.671 100.167 276.82 96.3313 275.949 91.9418C271.273 68.3777 252.907 50.7917 230.962 50.7917C227.702 50.7917 224.522 51.1797 221.454 51.9176C213.292 24.6199 190.733 5 164.183 5C134.414 5 109.664 29.6653 104.597 62.1628C96.0597 55.0118 85.54 50.7917 74.1617 50.7917C53.6198 50.7917 35.8767 64.5463 27.5411 84.4694H18.838C15.0615 84.4694 12 87.9835 12 92.3184C12 96.6532 15.0615 100.167 18.838 100.167H269.748Z" fill="#DDF4FF"/><rect opacity="0.6" x="19" y="351" width="527" height="44" rx="22" fill="#58A700"/><rect x="415.46" y="387.312" width="5.78286" height="18.4561" rx="2.89143" fill="#58CC02"/><rect x="424.443" y="393" width="5.78286" height="18.4561" rx="2.89143" fill="#58CC02"/><rect x="450.197" y="386" width="5.78286" height="18.4561" rx="2.89143" fill="#58CC02"/><rect opacity="0.6" y="366" width="5.78286" height="18.4561" rx="2.89143" fill="#58A700"/><rect opacity="0.6" x="560.254" y="374.415" width="5.78286" height="18.4561" rx="2.89143" fill="#58A700"/><rect opacity="0.6" x="569.236" y="371" width="5.78286" height="18.4561" rx="2.89143" fill="#58A700"/><path opacity="0.6" d="M9.48145 351.865C9.48145 350.268 10.776 348.973 12.3729 348.973C13.9698 348.973 15.2643 350.268 15.2643 351.865V374.184C15.2643 375.781 13.9698 377.076 12.3729 377.076C10.776 377.076 9.48145 375.781 9.48145 374.184V351.865Z" fill="#58A700"/><rect opacity="0.6" x="515.582" y="337.607" width="5.78286" height="18.4561" rx="2.89143" fill="#58A700"/><rect opacity="0.6" x="503.812" y="342.605" width="5.78286" height="18.4561" rx="2.89143" fill="#58A700"/><rect x="175.468" y="388.021" width="5.78286" height="18.4561" rx="2.89143" fill="#58CC02"/><rect x="166.484" y="381.871" width="5.78286" height="18.4561" rx="2.89143" fill="#58CC02"/><rect x="133.021" y="316.041" width="5.78286" height="18.4561" rx="2.89143" fill="#58CC02"/><rect x="123.66" y="318.334" width="5.78286" height="18.4561" rx="2.89143" fill="#58CC02"/><path fill-rule="evenodd" clip-rule="evenodd" d="M233.227 117.942L273.515 113.813C288.937 112.233 302.964 122.821 305.671 138.085L317.104 202.546C319.958 218.64 309.225 234 293.132 236.854C292.419 236.98 291.701 237.08 290.981 237.154L241.142 242.262C224.882 243.928 210.351 232.098 208.685 215.839C208.611 215.119 208.563 214.396 208.543 213.672L206.662 148.232C206.217 132.736 217.805 119.522 233.227 117.942Z" fill="#A56644"/><path fill-rule="evenodd" clip-rule="evenodd" d="M244.105 95.0001C247.681 94.0226 251.372 96.129 252.349 99.7048L253.476 103.825C254.453 107.401 252.347 111.092 248.771 112.069C245.195 113.047 241.504 110.941 240.526 107.365L239.4 103.245C238.423 99.6688 240.529 95.9776 244.105 95.0001Z" fill="#A56644"/><path fill-rule="evenodd" clip-rule="evenodd" d="M222.487 102.332C219.873 104.96 219.884 109.21 222.512 111.825L225.54 114.837C228.169 117.451 232.418 117.44 235.033 114.812C237.647 112.184 237.636 107.934 235.008 105.319L231.979 102.307C229.351 99.6928 225.101 99.704 222.487 102.332Z" fill="#A56644"/><path fill-rule="evenodd" clip-rule="evenodd" d="M253.303 130.298C259.505 129.663 265.048 134.175 265.684 140.377L266.057 144.019C266.693 150.221 262.18 155.764 255.978 156.4C249.776 157.035 244.233 152.523 243.598 146.321L243.225 142.679C242.589 136.477 247.101 130.934 253.303 130.298Z" fill="white"/><path fill-rule="evenodd" clip-rule="evenodd" d="M280.602 127.5C274.4 128.136 269.888 133.679 270.523 139.881L270.897 143.523C271.532 149.725 277.075 154.237 283.277 153.602C289.479 152.966 293.992 147.423 293.356 141.221L292.983 137.579C292.347 131.377 286.804 126.865 280.602 127.5Z" fill="white"/><path d="M262.612 140.546C265.083 141.529 265.338 144.93 264.33 147.662C263.131 150.915 260.909 153.241 258.151 154.108C255.373 154.981 253.014 154.38 251.945 152.724C250.953 151.187 250.92 148.524 253.992 145.835L254.833 145.053C255.269 144.688 255.655 144.268 255.982 143.804L256.82 142.7C258.457 140.81 260.456 139.688 262.612 140.546Z" fill="#3D3D3D"/><circle cx="255.37" cy="144.396" r="3.52851" transform="rotate(63.559 255.37 144.396)" fill="white"/><path d="M289.641 138.54C292.112 139.523 292.367 142.924 291.359 145.656C290.16 148.909 287.937 151.235 285.18 152.102C282.402 152.975 280.043 152.374 278.974 150.717C277.982 149.18 277.949 146.517 281.021 143.829L281.862 143.047C282.298 142.682 282.684 142.262 283.011 141.797L283.849 140.694C285.486 138.804 287.484 137.682 289.641 138.54Z" fill="#3D3D3D"/><circle cx="282.4" cy="142.389" r="3.52851" transform="rotate(63.559 282.4 142.389)" fill="white"/><path fill-rule="evenodd" clip-rule="evenodd" d="M270.021 144.26C276.81 143.564 282.877 148.503 283.573 155.292L285.533 174.413C286.228 181.202 281.289 187.269 274.5 187.965C267.712 188.66 261.644 183.721 260.949 176.932L258.989 157.812C258.293 151.023 263.233 144.956 270.021 144.26Z" fill="#E5A259"/><circle cx="272.345" cy="150.463" r="4.27134" transform="rotate(-5.85139 272.345 150.463)" fill="#3D3D3D"/><path fill-rule="evenodd" clip-rule="evenodd" d="M304.65 207.98L304.598 207.679C304.093 204.774 306.038 202.009 308.943 201.504L323.672 198.942C326.577 198.436 329.342 200.382 329.847 203.287L329.899 203.588C330.405 206.493 328.459 209.257 325.554 209.763L310.826 212.325C307.921 212.83 305.156 210.885 304.65 207.98Z" fill="#A56644"/><path fill-rule="evenodd" clip-rule="evenodd" d="M274.609 213.206L274.557 212.905C274.051 210 275.997 207.235 278.902 206.73L293.63 204.168C296.535 203.662 299.3 205.608 299.806 208.513L299.858 208.814C300.363 211.719 298.418 214.483 295.513 214.989L280.784 217.551C277.879 218.056 275.114 216.111 274.609 213.206Z" fill="#A56644"/><path d="M496.676 355.47C496.401 353.346 498.055 351.465 500.197 351.465H520.799C522.94 351.465 524.594 353.346 524.319 355.47L521.688 375.794C521.459 377.564 519.952 378.889 518.168 378.889H502.828C501.043 378.889 499.536 377.564 499.307 375.794L496.676 355.47Z" fill="#D89B54"/><path d="M405.265 355.47C404.99 353.346 406.644 351.465 408.785 351.465H429.387C431.528 351.465 433.182 353.346 432.908 355.47L430.277 375.794C430.048 377.564 428.54 378.889 426.756 378.889H411.416C409.632 378.889 408.125 377.564 407.896 375.794L405.265 355.47Z" fill="#C0853F"/><path d="M169.319 355.47C169.044 353.346 170.698 351.465 172.84 351.465H193.442C195.583 351.465 197.237 353.346 196.962 355.47L194.331 375.794C194.102 377.564 192.595 378.889 190.811 378.889H175.471C173.686 378.889 172.179 377.564 171.95 375.794L169.319 355.47Z" fill="#D89B54"/><path d="M85.289 355.47C85.0141 353.346 86.6681 351.465 88.8096 351.465H109.411C111.553 351.465 113.207 353.346 112.932 355.47L110.301 375.794C110.072 377.564 108.565 378.889 106.78 378.889H91.4405C89.6561 378.889 88.149 377.564 87.9199 375.794L85.289 355.47Z" fill="#C0853F"/><path d="M66.8447 185.095C66.8447 173.332 76.381 163.796 88.1445 163.796H442.942C454.706 163.796 464.242 173.332 464.242 185.095V312.661H66.8447V185.095Z" fill="#4F4F4F"/><path d="M114.65 185.095C114.65 173.332 124.187 163.796 135.95 163.796H468.68C480.444 163.796 489.98 173.332 489.98 185.095V312.662H114.65L114.65 185.095Z" fill="#606060"/><path fill-rule="evenodd" clip-rule="evenodd" d="M425.82 192.471C425.339 190.416 423.283 189.141 421.228 189.622L419.783 189.961C416.382 190.758 413.264 192.473 410.768 194.918L409.574 196.088C408.067 197.565 408.043 199.985 409.52 201.492C410.997 203 413.417 203.024 414.924 201.547L416.118 200.377C417.615 198.909 419.486 197.881 421.527 197.402L422.972 197.064C425.026 196.582 426.302 194.526 425.82 192.471Z" fill="#FF86D0"/><path fill-rule="evenodd" clip-rule="evenodd" d="M428.273 229.503C430.098 228.796 431.004 226.744 430.297 224.919L422.884 205.778C422.178 203.953 420.126 203.047 418.301 203.754C416.476 204.46 415.569 206.512 416.276 208.337L423.689 227.478C424.396 229.303 426.448 230.21 428.273 229.503Z" fill="#FFAADE"/><path fill-rule="evenodd" clip-rule="evenodd" d="M416.798 255.538C418.608 256.283 420.678 255.419 421.423 253.61L429.234 234.627C429.978 232.818 429.115 230.747 427.305 230.002C425.495 229.258 423.425 230.121 422.68 231.931L414.87 250.913C414.125 252.723 414.988 254.793 416.798 255.538Z" fill="#FFAADE"/><path fill-rule="evenodd" clip-rule="evenodd" d="M430.036 272.347C431.968 272.658 433.786 271.343 434.096 269.411L445.827 205.795C446.137 203.863 444.822 202.045 442.89 201.734C440.958 201.424 439.14 202.738 438.83 204.67L427.099 268.287C426.789 270.219 428.104 272.037 430.036 272.347Z" fill="#FFAADE"/><path fill-rule="evenodd" clip-rule="evenodd" d="M455.164 186.435C456.288 188.184 455.782 190.513 454.033 191.637L444.258 197.923C442.51 199.047 440.181 198.541 439.056 196.793C437.932 195.044 438.438 192.715 440.187 191.591L449.962 185.305C451.71 184.18 454.039 184.686 455.164 186.435Z" fill="#FF86D0"/><rect x="312.566" y="272.431" width="42.7765" height="19.8459" fill="#58CC02"/><path d="M428.076 281.621C428.076 272.063 435.824 264.315 445.382 264.315H494.24V294.431H428.076V281.621Z" fill="#FFAADE"/><path d="M415.654 276.182C415.654 264.463 427.056 256.133 438.22 259.694L487.984 275.57V294.429H415.654V276.182Z" fill="#1CB0F6"/><path d="M444.068 275.114C444.079 275.612 443.679 276.022 443.18 276.022C442.698 276.022 442.304 275.637 442.293 275.155L441.958 260.887L443.747 261.458L444.068 275.114Z" fill="#0E85BD"/><path d="M465.331 262.464C465.331 254.622 471.689 248.264 479.531 248.264H492.178C500.02 248.264 506.377 254.622 506.377 262.464V330.866H465.331V262.464Z" fill="#606060"/><path d="M141.401 291.877C141.401 285.996 146.169 281.228 152.051 281.228H503.385C515.149 281.228 524.685 290.764 524.685 302.527V357.266H141.401V291.877Z" fill="#6F6F6F"/><path d="M375.919 215.509C375.797 211.534 379.904 209.139 383.603 210.597L439.17 232.508L430.666 258.287C422.22 260.13 413.154 259.573 404.508 256.164C387.194 249.337 376.455 233.002 375.919 215.509Z" fill="#4AAD00"/><path d="M293.108 175.999C291.706 163.005 304.547 152.998 317.069 156.74C328.745 160.229 341.166 163.236 347.503 162.552C353.84 161.869 365.333 156.281 375.996 150.381C387.432 144.055 402.112 151.092 403.514 164.085L409.771 222.069C413.061 252.557 391.013 279.939 360.525 283.229C330.037 286.518 302.655 264.47 299.365 233.982L293.108 175.999Z" fill="#58CC02"/><path d="M351.147 247.167L365.04 245.663C365.785 245.582 366.387 246.215 366.23 246.912C365.472 250.262 362.498 252.841 358.827 253.238C355.157 253.636 351.703 251.753 350.251 248.642C349.948 247.995 350.402 247.248 351.147 247.167Z" fill="#8EE000"/><path d="M375.394 244.551L389.287 243.047C390.032 242.966 390.634 243.598 390.476 244.296C389.719 247.646 386.744 250.225 383.074 250.622C379.403 251.019 375.949 249.137 374.497 246.026C374.195 245.378 374.649 244.631 375.394 244.551Z" fill="#8EE000"/><path d="M364.535 257.586L378.429 256.082C379.173 256.001 379.775 256.634 379.618 257.331C378.86 260.681 375.886 263.26 372.215 263.657C368.545 264.055 365.091 262.172 363.639 259.061C363.337 258.414 363.791 257.667 364.535 257.586Z" fill="#8EE000"/><path fill-rule="evenodd" clip-rule="evenodd" d="M352.067 178.396C358.793 183.904 369.483 182.751 375.569 175.86C381.656 168.969 378.427 211.858 378.415 211.75C378.41 211.698 374.799 212.073 367.584 212.873C365.65 213.088 362.166 213.479 357.132 214.046C349.271 186.607 347.583 174.724 352.067 178.396Z" fill="#89E219"/><path d="M388.215 158.436L373.824 178.411C373.052 179.482 373.546 180.995 374.798 181.399C380.817 183.34 387.512 181.156 391.314 175.878C395.116 170.601 395.08 163.543 391.351 158.425C390.574 157.36 388.987 157.366 388.215 158.436Z" fill="#8EE000"/><path d="M398.209 161.752L383.817 181.727C383.046 182.797 383.54 184.31 384.792 184.714C390.81 186.655 397.505 184.471 401.308 179.194C405.11 173.917 405.074 166.858 401.344 161.741C400.568 160.676 398.98 160.681 398.209 161.752Z" fill="#8EE000"/><path d="M336.227 163.997L354.002 180.109C354.955 180.973 354.788 182.508 353.672 183.142C348.309 186.185 341.47 185.444 336.774 181.187C332.078 176.931 330.692 170.217 333.228 164.611C333.755 163.444 335.274 163.133 336.227 163.997Z" fill="#89E219"/><path d="M327 169.453L343.722 184.61C344.618 185.422 344.461 186.867 343.411 187.463C338.366 190.326 331.933 189.629 327.515 185.625C323.097 181.62 321.793 175.304 324.178 170.03C324.675 168.933 326.103 168.64 327 169.453Z" fill="#89E219"/><path d="M315.94 198.194C314.62 185.964 323.465 174.979 335.696 173.659C347.927 172.339 358.911 181.184 360.231 193.415L361.408 204.327C362.728 216.558 353.883 227.542 341.653 228.862C329.422 230.182 318.437 221.337 317.118 209.106L315.94 198.194Z" fill="#89E219"/><path d="M323.426 198.36C322.508 189.852 328.661 182.211 337.169 181.293C345.677 180.375 353.319 186.528 354.237 195.036L355.172 203.701C356.09 212.21 349.937 219.851 341.429 220.769C332.92 221.687 325.279 215.534 324.361 207.026L323.426 198.36Z" fill="white"/><path d="M404.793 176.105C401.453 170.615 395.144 167.244 388.331 167.98C378.937 168.993 372.143 177.431 373.157 186.825L375.442 208.008C376.456 217.402 384.894 224.196 394.288 223.182C401.1 222.447 406.545 217.809 408.637 211.732L404.793 176.105Z" fill="#89E219"/><path d="M375.802 190.273C375.027 183.095 380.219 176.647 387.397 175.872C394.576 175.098 401.024 180.289 401.798 187.468L403.253 200.948C404.028 208.127 398.836 214.574 391.657 215.349C384.478 216.124 378.031 210.932 377.256 203.753L375.802 190.273Z" fill="white"/><path d="M402.004 172.107L404.25 171.864L404.839 177.32L402.592 177.563L402.004 172.107Z" fill="#89E219"/><path d="M349.89 198.818C353.398 199.67 354.387 204.193 353.552 208.057C352.558 212.658 350.013 216.207 346.471 217.896C342.903 219.598 339.618 219.238 337.866 217.214C336.241 215.337 335.689 211.764 339.308 207.567L340.29 206.355C340.807 205.782 341.246 205.144 341.597 204.457L342.514 202.815C344.354 199.963 346.828 198.075 349.89 198.818Z" fill="#3D3D3D"/><circle cx="341.181" cy="206.156" r="3.74934" transform="rotate(55.5115 341.181 206.156)" fill="white"/><path d="M378.305 197.512C378.878 195.753 380.01 194.373 381.791 193.94C384.854 193.197 387.327 195.085 389.167 197.937L390.084 199.579C390.435 200.266 390.875 200.904 391.391 201.477L392.374 202.688C395.992 206.886 395.441 210.459 393.816 212.336C392.063 214.36 388.779 214.719 385.211 213.018C382.148 211.558 379.832 208.707 378.618 204.988C379.666 204.874 380.66 204.321 381.304 203.384C382.477 201.677 382.044 199.343 380.337 198.17C379.714 197.743 379.008 197.529 378.305 197.512Z" fill="#3D3D3D"/><path fill-rule="evenodd" clip-rule="evenodd" d="M361.561 222.512C361.561 222.613 361.612 222.713 361.612 222.814C362.466 227.234 366.786 230.148 371.206 229.294L371.658 229.193C371.96 229.143 372.311 229.043 372.613 228.942C376.732 227.586 379.042 223.115 377.686 218.996L374.613 209.764C373.558 206.549 372.575 206.46 369.36 206.46C368.858 206.46 368.305 206.51 367.803 206.611C364.036 207.414 359.594 209.01 360.196 212.778L361.561 222.512Z" fill="#F49000"/><path fill-rule="evenodd" clip-rule="evenodd" d="M364.776 221.056C365.63 224.019 368.644 225.828 371.658 225.225L372.06 225.124C372.261 225.074 372.412 225.024 372.613 224.974C375.426 224.12 376.933 221.156 376.079 218.343L373.316 209.552C372.512 207.041 370.201 205.383 367.64 205.383C367.238 205.383 366.836 205.433 366.484 205.484L366.183 205.534C366.032 205.584 365.881 205.584 365.781 205.634C363.018 206.438 361.411 209.351 362.214 212.114L364.776 221.056Z" fill="#DC6A01"/><path fill-rule="evenodd" clip-rule="evenodd" d="M371.658 225.225L372.06 225.124C372.261 225.074 372.412 225.024 372.613 224.974C373.014 224.873 373.366 224.672 373.667 224.522C373.667 223.919 373.667 223.316 373.517 222.663C372.813 218.946 369.548 216.334 365.881 216.334C365.379 216.334 364.877 216.384 364.425 216.484C364.123 216.535 363.822 216.635 363.521 216.736L364.776 221.056C365.63 224.019 368.594 225.828 371.658 225.225Z" fill="#FFCAFF"/><path d="M382.622 210.487C382.736 210.805 382.595 211.153 382.302 211.319L378.069 213.716L359.345 213.653C358.926 213.651 358.595 213.292 358.655 212.877C359.448 207.406 363.855 202.951 369.605 202.33C375.425 201.702 380.738 205.206 382.622 210.487Z" fill="#FFC200"/><path fill-rule="evenodd" clip-rule="evenodd" d="M368.049 207.982C368.044 207.986 368.041 207.987 368.041 207.987C367.286 208.632 366.151 208.543 365.506 207.788C364.861 207.032 364.951 205.897 365.706 205.252C366.279 204.763 367.191 204.308 368.106 203.989C369.052 203.66 370.241 203.392 371.424 203.447C372.416 203.492 373.184 204.333 373.138 205.326C373.093 206.318 372.252 207.085 371.26 207.039C370.682 207.013 369.97 207.149 369.289 207.386C368.959 207.501 368.665 207.629 368.433 207.75C368.318 207.81 368.224 207.864 368.153 207.909C368.118 207.932 368.091 207.951 368.071 207.965C368.061 207.972 368.054 207.978 368.049 207.982Z" fill="#FFDE00"/><path d="M341.011 282.344L346.192 285.98L428.811 273.427L438.629 222.084L430.992 218.469C429.932 217.967 428.694 218.016 427.676 218.6L404.198 232.071L352.941 225.372C351.053 225.126 349.303 226.398 348.954 228.269L339.547 278.755C339.29 280.135 339.862 281.538 341.011 282.344Z" fill="#FFEBCE"/><path d="M411.133 235.907L436.911 220.431C438.906 219.234 441.376 220.965 440.932 223.248L430.969 274.459C430.824 275.207 430.368 275.858 429.715 276.25L399.79 294.215L411.133 235.907Z" fill="#DD5858"/><path d="M411.819 237.077C412.173 235.209 410.527 233.575 408.662 233.941L402.891 235.073C401.813 235.284 400.973 236.131 400.768 237.21L389.971 294.306C389.618 296.174 391.263 297.808 393.129 297.442L398.899 296.31C399.977 296.098 400.818 295.252 401.022 294.172L411.819 237.077Z" fill="#FF6464"/><path d="M354.204 233.527C354.476 232.135 355.784 231.195 357.191 231.38L401.229 237.17L389.939 294.762L346.236 289.016C344.699 288.814 343.651 287.356 343.95 285.835L354.204 233.527Z" fill="#FF6464"/><path d="M385.82 294.221L389.939 294.762L401.229 237.17L397.109 236.628L385.82 294.221Z" fill="#E85F5F"/><path d="M404.789 291.214L416.132 232.906L436.911 220.431C438.906 219.234 441.376 220.965 440.932 223.248L430.969 274.459C430.824 275.207 430.368 275.858 429.715 276.25L404.789 291.214Z" fill="#E85F5F"/><path d="M326.859 228.699C327.657 225.584 330.83 223.707 333.944 224.506L340.778 226.258C343.892 227.057 345.77 230.229 344.971 233.344L343.037 240.886L330.564 237.688C327.449 236.889 325.572 233.717 326.371 230.602L326.859 228.699Z" fill="#FFC6B7"/><path d="M302.072 222.395C297.96 221.279 293.869 224.315 294.468 228.534C297.107 247.101 310.474 263.23 329.722 268.455C348.969 273.68 368.657 266.525 380.323 251.841C382.973 248.505 380.979 243.816 376.867 242.7L302.072 222.395Z" fill="#58CC02"/><path d="M320.845 210.099C317.738 191.65 301.763 178.14 283.054 178.14C264.375 178.14 248.457 191.695 245.48 210.135L229.185 283.105C229.148 283.335 229.129 283.567 229.129 283.8C229.129 286.211 231.083 288.166 233.494 288.166H247.484L249.733 278.354L251.981 288.166H325.707C325.95 288.166 326.192 288.146 326.432 288.105C328.81 287.705 330.655 273.625 330.255 271.247L320.845 210.099Z" fill="#875FCB"/><path d="M264.86 226.251H293.275L296.874 266.323H264.86V226.251Z" fill="#593F86"/><path d="M265.042 265.73H322.775C329.02 265.73 334.083 270.793 334.083 277.038C334.083 283.283 329.02 288.346 322.775 288.346H275.629C265.006 288.346 258.439 276.763 263.894 267.648L265.042 265.73Z" fill="#A570FF"/><path fill-rule="evenodd" clip-rule="evenodd" d="M277.999 177.143C293.84 175.018 308.796 184.598 313.082 199.617L320.451 225.445C322.477 232.544 318.221 239.941 310.946 241.965C310.326 242.138 309.694 242.267 309.055 242.353L265.233 248.233C257.745 249.238 250.879 244.124 249.898 236.81C249.814 236.187 249.776 235.558 249.783 234.928L250.083 208.071C250.257 192.454 262.158 179.269 277.999 177.143Z" fill="#FFC6B7"/><path fill-rule="evenodd" clip-rule="evenodd" d="M280.856 227.99C281.379 227.386 282.292 227.319 282.896 227.841C284.848 229.526 287.449 230.031 290.995 229.023C291.763 228.804 292.563 229.25 292.782 230.018C293 230.787 292.554 231.587 291.786 231.805C287.581 233.001 283.889 232.52 281.006 230.03C280.401 229.508 280.334 228.595 280.856 227.99Z" fill="#EE9583"/><path fill-rule="evenodd" clip-rule="evenodd" d="M274.538 198.602C280.101 197.856 285.216 201.76 285.962 207.323L286.796 213.537C287.542 219.1 283.638 224.215 278.075 224.961C272.513 225.708 267.398 221.803 266.651 216.241L265.817 210.026C265.071 204.463 268.975 199.348 274.538 198.602Z" fill="white"/><path fill-rule="evenodd" clip-rule="evenodd" d="M299.022 195.316C293.459 196.063 289.555 201.177 290.301 206.74L291.135 212.955C291.882 218.518 296.996 222.422 302.559 221.676C308.122 220.929 312.026 215.815 311.28 210.252L310.446 204.037C309.699 198.474 304.585 194.57 299.022 195.316Z" fill="white"/><path fill-rule="evenodd" clip-rule="evenodd" d="M295.457 224.801C297.135 223.507 297.442 221.092 296.142 219.408C295.828 219 295.233 218.596 294.511 218.216L294.311 218.113C294.277 218.096 294.243 218.079 294.209 218.062L294 217.962L293.788 217.862L293.571 217.765L293.351 217.669L293.129 217.574L292.905 217.482L292.68 217.392L292.455 217.304L292.23 217.218L291.894 217.093L291.455 216.936L291.134 216.825L290.722 216.686L290.333 216.56L289.974 216.447L289.432 216.283L289.074 216.178L288.732 216.083L288.738 216.46L288.748 216.822L288.769 217.364L288.791 217.817L288.827 218.418L288.85 218.736L288.877 219.065L288.906 219.4L288.94 219.741L288.978 220.086L289.02 220.431L289.051 220.662L289.083 220.891L289.118 221.118L289.155 221.343L289.195 221.566C289.201 221.603 289.208 221.639 289.215 221.676L289.258 221.893L289.303 222.106C289.327 222.211 289.351 222.314 289.376 222.415L289.428 222.614C289.437 222.647 289.446 222.679 289.455 222.712L289.511 222.901C289.664 223.395 289.847 223.811 290.066 224.094C291.365 225.779 293.779 226.095 295.457 224.801Z" fill="#EE9583"/><path d="M283.581 211.394C285.547 211.96 285.999 214.545 285.434 216.713C284.761 219.295 283.235 221.244 281.189 222.116C279.128 222.994 277.276 222.712 276.332 221.524C275.457 220.423 275.23 218.386 277.379 216.095L277.965 215.433C278.271 215.12 278.535 214.769 278.75 214.389L279.309 213.481C280.419 211.91 281.865 210.9 283.581 211.394Z" fill="#3D3D3D"/><path d="M308.067 208.232C310.033 208.798 310.485 211.384 309.92 213.552C309.247 216.133 307.721 218.083 305.674 218.954C303.613 219.833 301.762 219.551 300.818 218.363C299.942 217.261 299.715 215.224 301.865 212.933L302.45 212.271C302.756 211.959 303.02 211.608 303.236 211.227L303.794 210.319C304.904 208.748 306.35 207.738 308.067 208.232Z" fill="#3D3D3D"/><circle cx="278.413" cy="213.192" r="3.32867" transform="rotate(57.9276 278.413 213.192)" fill="white"/><circle cx="302.898" cy="210.03" r="3.32867" transform="rotate(57.9276 302.898 210.03)" fill="white"/><path fill-rule="evenodd" clip-rule="evenodd" d="M248.216 197.283L307.691 189.302L314.371 208.604L250.878 217.124L248.216 197.283Z" fill="#FFC6B7"/><path d="M273.404 178.986L280.976 178.158C298.515 176.241 314.821 187.433 319.336 204.489L-nan -nanL319.336 204.489L304.31 207.154C290.437 209.615 277.196 200.364 274.735 186.491L273.404 178.986Z" fill="#A570FF"/><path fill-rule="evenodd" clip-rule="evenodd" d="M251.606 183.237L265.757 176.387C281.575 168.73 300.586 173.935 310.312 188.507L310.604 188.952C310.215 189.364 309.803 189.779 309.368 190.197L309.038 190.511C308.759 190.773 308.471 191.037 308.174 191.302L307.813 191.62C306.962 192.363 306.04 193.117 305.049 193.879L304.619 194.206C304.33 194.425 304.035 194.644 303.735 194.864L303.28 195.195L302.816 195.527L302.344 195.86C302.264 195.915 302.185 195.971 302.104 196.027L301.619 196.361L301.125 196.697L300.623 197.034L300.112 197.372L299.592 197.712C299.418 197.825 299.242 197.939 299.064 198.052L298.527 198.394L297.982 198.736L297.428 199.08C297.335 199.138 297.241 199.195 297.148 199.253L296.581 199.598L296.005 199.945C295.909 200.003 295.812 200.061 295.714 200.119L295.126 200.467L294.529 200.817L293.923 201.167L293.309 201.519C293.206 201.578 293.102 201.637 292.999 201.695L292.372 202.049L291.736 202.404L291.092 202.759L290.439 203.116L289.777 203.475C289.666 203.534 289.555 203.594 289.443 203.654L288.769 204.014C288.656 204.074 288.542 204.134 288.428 204.194L287.741 204.556L287.045 204.918L286.341 205.282L285.628 205.647L284.479 206.229L283.122 206.913L281.137 207.906L279.657 208.641L278.436 209.245L276.543 210.177L274.576 211.14L272.534 212.134L270.059 213.333L268.599 214.038L265.581 215.489L262.431 216.995L258.73 218.756L255.737 220.174L250.828 222.488L248.982 223.356C243.461 225.948 236.884 223.573 234.293 218.052C233.301 215.939 233.004 213.565 233.445 211.273L234.573 205.411C236.433 195.746 242.747 187.526 251.606 183.237Z" fill="#593F86"/><path d="M263.669 179.466C264.075 181.756 262.549 183.941 260.26 184.347C257.97 184.753 255.785 183.226 255.379 180.937C254.973 178.648 256.5 176.463 258.789 176.057C261.078 175.651 263.263 177.177 263.669 179.466Z" fill="#593F86"/><path opacity="0.5" d="M289.521 277.038C289.521 272.773 292.979 269.315 297.245 269.315H322.675C326.941 269.315 330.399 272.773 330.399 277.038C330.399 281.304 326.941 284.761 322.675 284.761H297.245C292.979 284.761 289.521 281.304 289.521 277.038Z" fill="#875FCB"/><path fill-rule="evenodd" clip-rule="evenodd" d="M299.932 303.521C300.284 301.684 302.059 300.48 303.896 300.832L314.667 302.896C316.504 303.248 317.708 305.023 317.356 306.86C317.004 308.697 315.229 309.901 313.392 309.549L302.621 307.485C300.784 307.133 299.58 305.359 299.932 303.521Z" fill="#593F86"/><path d="M301.838 295.665C302.644 298.134 305.298 299.483 307.767 298.678C310.236 297.872 311.585 295.218 310.78 292.749L301.838 295.665ZM305.742 277.303C304.936 274.834 302.282 273.485 299.813 274.291C297.344 275.096 295.995 277.75 296.8 280.219L305.742 277.303ZM310.78 292.749L305.742 277.303L296.8 280.219L301.838 295.665L310.78 292.749Z" fill="#593F86"/><path fill-rule="evenodd" clip-rule="evenodd" d="M329.608 301.071C329.157 299.256 330.263 297.418 332.078 296.967L342.721 294.321C344.536 293.87 346.374 294.976 346.825 296.791C347.276 298.606 346.171 300.444 344.355 300.895L333.712 303.541C331.897 303.992 330.06 302.886 329.608 301.071Z" fill="#593F86"/><path d="M328.043 293.14C329.81 295.043 332.785 295.154 334.689 293.387C336.592 291.62 336.703 288.644 334.936 286.741L328.043 293.14ZM323.882 274.834C322.115 272.931 319.14 272.82 317.236 274.587C315.333 276.354 315.223 279.329 316.989 281.233L323.882 274.834ZM334.936 286.741L323.882 274.834L316.989 281.233L328.043 293.14L334.936 286.741Z" fill="#593F86"/><path d="M272.316 250.116C273.686 247.071 272.328 243.492 269.282 242.122C266.237 240.752 262.658 242.11 261.288 245.155L272.316 250.116ZM246.733 277.513C245.363 280.558 246.722 284.137 249.767 285.507C252.812 286.877 256.391 285.518 257.761 282.473L246.733 277.513ZM261.288 245.155L246.733 277.513L257.761 282.473L272.316 250.116L261.288 245.155Z" fill="#593F86"/><path d="M237.604 288.346C237.604 283.053 241.895 278.761 247.188 278.761H259.465V279.837C259.465 284.536 255.656 288.346 250.956 288.346H237.604Z" fill="#FFC6B7"/><path d="M247.12 283.755H251.039C251.41 283.755 251.711 284.056 251.711 284.427C251.711 284.798 251.41 285.099 251.039 285.099H247.12C245.327 285.099 243.873 286.553 243.873 288.346H242.53C242.53 285.811 244.585 283.755 247.12 283.755Z" fill="#EE9583"/><path d="M326.734 228.667C327.532 225.553 330.705 223.675 333.819 224.474L339.526 225.937C341.682 226.49 342.982 228.686 342.429 230.842L341.009 236.381C340.64 237.818 339.176 238.685 337.739 238.316L328.128 235.852C326.451 235.422 325.44 233.713 325.87 232.036L326.734 228.667Z" fill="#FFC6B7"/><path d="M332.365 229.707C332.458 229.348 332.241 228.982 331.882 228.89C331.522 228.797 331.156 229.014 331.064 229.373L332.365 229.707ZM331.064 229.373L329.326 236.144L330.627 236.478L332.365 229.707L331.064 229.373Z" fill="#EE9583"/><path d="M337.199 231.497C337.292 231.138 337.077 230.771 336.718 230.678C336.359 230.585 335.992 230.8 335.899 231.159L337.199 231.497ZM335.899 231.159L334.269 237.424L335.569 237.763L337.199 231.497L335.899 231.159Z" fill="#EE9583"/><path d="M438.413 260.201C437.625 264.554 432.348 265.986 430.112 262.168C428.227 258.948 426.707 255.501 425.601 251.888C424.354 247.813 427.924 244.179 432.16 244.644L435.324 244.991C438.422 245.33 440.582 248.224 440.027 251.29L438.413 260.201Z" fill="#58CC02"/><path d="M359.579 297.096C362.534 300.051 367.325 300.051 370.28 297.096C373.235 294.141 373.235 289.35 370.28 286.395L359.579 297.096ZM370.28 287.851C373.235 284.896 373.235 280.105 370.28 277.15C367.325 274.195 362.534 274.195 359.579 277.15L370.28 287.851ZM370.28 286.395C370.682 286.797 370.682 287.449 370.28 287.851L359.579 277.15C354.071 282.658 354.071 291.588 359.579 297.096L370.28 286.395Z" fill="#F49000"/><path d="M430.358 281.384C430.071 277.215 426.458 274.068 422.289 274.356C418.12 274.643 414.973 278.255 415.261 282.425L430.358 281.384ZM416.217 281.327C412.048 281.614 408.901 285.227 409.188 289.396C409.475 293.565 413.088 296.712 417.257 296.425L416.217 281.327ZM415.261 282.425C415.221 281.857 415.65 281.366 416.217 281.327L417.257 296.425C425.028 295.889 430.894 289.155 430.358 281.384L415.261 282.425Z" fill="#F49000"/><path d="M264.763 232.971C265.905 233.491 266.528 234.737 266.261 235.963L263.609 248.092C263.367 249.197 262.168 249.797 261.139 249.328L256.729 247.319C255.968 246.973 255.552 246.142 255.73 245.325L258.535 232.495C258.777 231.391 259.976 230.79 261.005 231.259L264.763 232.971Z" fill="#A56644"/><path d="M181.526 114.657C169.674 106.369 153.274 109.919 145.911 122.368L110.232 182.69C103.245 194.504 107.163 209.745 118.981 216.724L179.327 252.363C191.781 259.717 207.86 254.919 214.246 241.942L243.061 183.383C248.473 172.386 245.054 159.085 235.01 152.06L181.526 114.657Z" fill="#3D3D3D"/><rect width="114.768" height="119.88" rx="24.8396" transform="matrix(-0.968513 0.248964 0.248964 0.968513 218.886 110.091)" fill="#3D3D3D"/><path d="M203.905 147.954C213.79 146.283 223.158 152.941 224.83 162.826L228.515 184.621C228.555 184.859 228.591 185.096 228.621 185.333L156.762 197.951C156.672 197.571 156.594 197.185 156.528 196.794L152.842 174.998C151.171 165.114 157.829 155.746 167.714 154.074L203.905 147.954Z" fill="#FFAE00"/><rect width="67.7058" height="66.6365" rx="18.152" transform="matrix(-0.986003 0.16673 0.16673 0.986003 223.29 153.716)" fill="#A56644"/><path fill-rule="evenodd" clip-rule="evenodd" d="M181.368 172.845C187.927 171.736 194.143 176.154 195.252 182.713L195.904 186.565C197.013 193.124 192.595 199.341 186.035 200.45C179.476 201.559 173.26 197.141 172.151 190.582L171.499 186.73C170.39 180.171 174.808 173.954 181.368 172.845Z" fill="white"/><path fill-rule="evenodd" clip-rule="evenodd" d="M210.287 167.955C203.728 169.064 199.31 175.281 200.419 181.84L201.07 185.692C202.179 192.251 208.396 196.669 214.955 195.56C221.514 194.451 225.932 188.234 224.823 181.675L224.172 177.823C223.063 171.264 216.846 166.846 210.287 167.955Z" fill="white"/><path d="M164.958 197.044C164.934 200.306 162.27 202.931 159.008 202.907C155.746 202.883 153.121 200.219 153.145 196.957C153.169 193.695 155.833 191.07 159.095 191.094C162.357 191.118 164.982 193.782 164.958 197.044Z" fill="#A56644"/><path d="M215.856 153.35C216.609 153.934 217.686 153.752 218.205 152.953C220.17 149.928 221.05 146.186 220.401 142.349C219.752 138.513 217.691 135.268 214.841 133.058C214.088 132.474 213.011 132.656 212.492 133.455C210.527 136.48 209.647 140.222 210.296 144.058C210.945 147.895 213.006 151.14 215.856 153.35Z" fill="#FFAE00"/><path d="M215.806 151.199C215.222 151.952 215.404 153.029 216.203 153.548C219.228 155.513 222.97 156.392 226.806 155.744C230.643 155.095 233.888 153.034 236.098 150.184C236.682 149.431 236.5 148.354 235.701 147.835C232.676 145.87 228.934 144.99 225.098 145.639C221.261 146.288 218.016 148.349 215.806 151.199Z" fill="#FFAE00"/><path d="M221.445 180.525C223.909 181.626 224.025 185.086 222.889 187.814C221.536 191.063 219.185 193.329 216.352 194.092C213.498 194.861 211.132 194.153 210.117 192.428C209.175 190.828 209.253 188.126 212.481 185.528L213.367 184.77C213.824 184.418 214.234 184.009 214.585 183.551L215.481 182.467C217.22 180.619 219.294 179.565 221.445 180.525Z" fill="#3D3D3D"/><circle cx="215.512" cy="181.76" r="3.29816" transform="rotate(65.9257 215.512 181.76)" fill="white"/><path d="M192.699 184.928C195.198 185.948 195.426 189.402 194.379 192.165C193.132 195.457 190.856 197.798 188.05 198.652C185.222 199.514 182.834 198.882 181.763 197.191C180.77 195.623 180.76 192.92 183.902 190.219L184.764 189.432C185.209 189.066 185.605 188.643 185.941 188.174L186.802 187.062C188.479 185.158 190.518 184.037 192.699 184.928Z" fill="#3D3D3D"/><circle cx="186.809" cy="186.355" r="3.29816" transform="rotate(64.0666 186.809 186.355)" fill="white"/><path d="M204.256 203.232L203.472 195.423L191.928 193.535C184.137 192.261 176.165 194.226 169.858 198.973L170.711 206.003L204.256 203.232Z" fill="#A56644"/><path d="M204.226 205.908L203.307 205.941C198.414 206.12 193.603 204.66 189.635 201.792L189.546 201.728" stroke="#80411F" stroke-width="2.86611" stroke-linecap="round"/><path d="M189.768 197.797L189.745 198.014C189.533 200.014 188.433 201.812 186.75 202.911L186.498 203.075" stroke="#80411F" stroke-width="2.86611" stroke-linecap="round"/><path fill-rule="evenodd" clip-rule="evenodd" d="M207.08 199.411C208.817 198.15 209.225 195.749 207.99 194.048C207.678 193.618 207.058 193.185 206.305 192.779L206.105 192.673C206.072 192.656 206.038 192.638 206.004 192.621L205.796 192.518C205.762 192.5 205.726 192.483 205.691 192.466L205.478 192.365L205.152 192.217L204.932 192.12L204.71 192.025L204.377 191.886L204.154 191.797L203.823 191.667L203.604 191.583L203.281 191.462L202.967 191.348L202.564 191.206L202.278 191.108L201.678 190.909L201.137 190.738L200.691 190.604L200.68 191.088L200.675 191.635L200.676 191.968L200.68 192.429L200.688 192.829L200.697 193.143L200.709 193.468L200.73 193.913L200.749 194.254L200.765 194.483L200.791 194.828L200.812 195.058L200.834 195.287C200.838 195.325 200.842 195.363 200.846 195.401L200.871 195.629L200.899 195.854C200.904 195.891 200.909 195.928 200.914 195.965L200.946 196.186C200.957 196.259 200.968 196.332 200.98 196.403L201.017 196.616L201.056 196.824C201.063 196.858 201.07 196.892 201.077 196.926L201.121 197.125C201.265 197.747 201.453 198.271 201.7 198.611C202.934 200.313 205.343 200.671 207.08 199.411Z" fill="#80411F"/><path d="M194.47 287.979L190.477 233.399L215.104 228.074L235.073 277.329L194.47 287.979Z" fill="#FFAE00"/><path fill-rule="evenodd" clip-rule="evenodd" d="M220.929 228.657C220.879 230.599 219.276 232.133 217.334 232.193C207.301 232.506 197.966 234.606 192.374 236.279C190.39 236.872 188.234 235.794 187.65 233.807L185.67 227.076C185.148 225.299 186.075 223.419 187.839 222.857C194.256 220.815 205.462 218.165 217.612 217.839C219.59 217.786 221.167 219.43 221.116 221.408L220.929 228.657Z" fill="#FFAE00"/><path d="M192.798 241.479C198.082 239.626 207.138 237.088 217.014 236.103C217.442 236.06 217.857 235.972 218.255 235.843L217.418 233.779C217.216 233.834 217.008 233.873 216.794 233.895C206.7 234.902 197.469 237.49 192.064 239.385C191.692 239.515 191.31 239.586 190.931 239.599L191.093 241.812C191.666 241.784 192.241 241.674 192.798 241.479Z" fill="#F19600"/><path d="M180.035 209.667L181.271 209.877C183.488 210.255 185.282 211.89 185.864 214.062C186.283 215.624 186.025 217.289 185.155 218.651L181.326 224.643L173.385 220.033C166.529 216.362 167.136 209.918 168.663 206.159C169.023 205.274 169.827 204.673 170.75 204.426L176.892 202.781C177.901 202.51 178.925 203.166 179.101 204.196L180.035 209.667Z" fill="#A56644"/><path d="M172.815 203.873C171.988 205.408 171.073 208.194 171.909 211.047C172.012 211.4 171.81 211.77 171.457 211.873C171.104 211.977 170.734 211.774 170.631 211.422C169.844 208.734 170.39 206.142 171.135 204.323L172.815 203.873Z" fill="#80411F"/><path d="M176.426 202.906C176.143 203.538 175.851 204.414 175.699 205.414C175.493 206.775 175.554 208.327 176.21 209.803C176.359 210.139 176.208 210.533 175.872 210.682C175.536 210.831 175.142 210.68 174.993 210.344C174.207 208.575 174.15 206.753 174.383 205.215C174.487 204.53 174.649 203.893 174.835 203.332L176.426 202.906Z" fill="#80411F"/><path fill-rule="evenodd" clip-rule="evenodd" d="M161.96 243.89C161.96 241.317 164.046 239.231 166.619 239.231L207.666 239.23C210.239 239.23 212.325 241.317 212.325 243.89C212.325 246.463 210.239 248.549 207.666 248.549L166.619 248.549C164.046 248.549 161.96 246.463 161.96 243.89Z" fill="#FFAE00"/><path d="M181.204 227.938L184.939 221.468L184.936 221.466L186.276 219.368C187.348 217.691 187.665 215.64 187.15 213.717C186.433 211.043 184.225 209.03 181.495 208.565L181.188 208.513L180.413 203.972C180.105 202.169 178.314 201.021 176.547 201.495L170.406 203.14C169.169 203.472 167.978 204.308 167.43 205.658C166.601 207.698 165.994 210.522 166.576 213.393C167.087 215.919 168.503 218.389 171.292 220.315C171.544 220.489 171.883 220.453 172.102 220.239C172.408 219.939 172.347 219.429 171.995 219.183C166.623 215.431 167.247 209.642 168.663 206.159C169.023 205.274 169.827 204.673 170.75 204.426L176.892 202.78C177.901 202.51 178.925 203.166 179.101 204.196L180.035 209.667L181.271 209.877C183.488 210.255 185.282 211.89 185.864 214.062C186.283 215.624 186.025 217.289 185.155 218.651L183.064 221.923L183.121 221.955L179.713 227.857C180.206 227.904 180.703 227.931 181.204 227.938Z" fill="#80411F"/><path fill-rule="evenodd" clip-rule="evenodd" d="M164.361 247.801C162.133 246.514 161.369 243.664 162.656 241.436L173.381 222.858C174.974 220.099 178.502 219.154 181.261 220.747L184.336 222.522L170.726 246.095C169.439 248.324 166.59 249.087 164.361 247.801Z" fill="#FFAE00"/><path d="M174.211 243.89C174.448 243.89 174.668 243.763 174.787 243.557L177.285 239.23L175.748 239.23L173.634 242.891C173.378 243.335 173.698 243.89 174.211 243.89Z" fill="#F19600"/><path fill-rule="evenodd" clip-rule="evenodd" d="M240.291 313.415C239.074 312.017 239.221 309.897 240.618 308.68L248.813 301.544C250.211 300.327 252.331 300.473 253.548 301.871C254.765 303.268 254.619 305.388 253.221 306.605L245.026 313.742C243.628 314.959 241.509 314.812 240.291 313.415Z" fill="#1CB0F6"/><path d="M73.8516 262.464C73.8516 254.622 80.2091 248.264 88.0514 248.264H175.971C183.813 248.264 190.171 254.622 190.171 262.464V357.267H73.8516V262.464Z" fill="#4F4F4F"/><path d="M490.162 262.464C490.162 254.622 496.52 248.264 504.362 248.264H517.009C524.851 248.264 531.209 254.622 531.209 262.464V357.267H490.162V262.464Z" fill="#606060"/><path d="M208.778 279.251C206.205 279.251 204.119 281.337 204.119 283.91C204.119 286.483 206.205 288.569 208.778 288.569V279.251ZM229.856 288.569C232.429 288.569 234.515 286.483 234.515 283.91C234.515 281.337 232.429 279.251 229.856 279.251V288.569ZM208.778 288.569H229.856V279.251H208.778V288.569Z" fill="#D1232C"/><path d="M233.701 301.352C234.879 303.64 237.688 304.54 239.976 303.362C242.264 302.184 243.164 299.375 241.986 297.087L233.701 301.352ZM234.221 282C233.043 279.712 230.234 278.811 227.946 279.989C225.658 281.167 224.758 283.976 225.935 286.264L234.221 282ZM241.986 297.087L234.221 282L225.935 286.264L233.701 301.352L241.986 297.087Z" fill="#D1232C"/><path d="M169.003 272.4L172.286 275.953L254.148 263.514L263.875 212.641L256.309 209.06C255.259 208.563 254.031 208.611 253.023 209.19L229.76 222.538L181.498 215.973C179.622 215.718 177.877 216.98 177.53 218.841L168.12 269.34C167.915 270.442 168.242 271.577 169.003 272.4Z" fill="#FFEBCE"/><path d="M236.631 226.338L262.174 211.004C264.15 209.818 266.598 211.533 266.157 213.796L256.286 264.537C256.142 265.278 255.69 265.923 255.043 266.312L225.392 284.112L236.631 226.338Z" fill="#119ADA"/><path d="M237.312 227.497C237.662 225.646 236.032 224.027 234.183 224.39L228.466 225.512C227.398 225.721 226.565 226.56 226.362 227.63L215.664 284.202C215.314 286.052 216.944 287.672 218.793 287.309L224.51 286.187C225.578 285.978 226.411 285.139 226.614 284.069L237.312 227.497Z" fill="#1CB0F6"/><path d="M180.224 223.98C180.495 222.6 181.791 221.669 183.184 221.852L226.819 227.59L215.633 284.654L172.33 278.96C170.807 278.76 169.769 277.316 170.065 275.808L180.224 223.98Z" fill="#1CB0F6"/><path d="M211.55 284.117L215.632 284.654L226.818 227.59L222.736 227.053L211.55 284.117Z" fill="#119ADA"/><path d="M230.346 281.138L241.585 223.364L262.174 211.004C264.15 209.818 266.598 211.533 266.158 213.795L256.286 264.537C256.142 265.278 255.69 265.923 255.043 266.311L230.346 281.138Z" fill="#15A2E4"/><path fill-rule="evenodd" clip-rule="evenodd" d="M540.257 214.189C542.769 215.466 543.771 218.538 542.494 221.05L515.204 274.743C513.927 277.256 510.855 278.257 508.342 276.98C505.83 275.703 504.828 272.631 506.105 270.119L533.396 216.426C534.673 213.913 537.745 212.912 540.257 214.189Z" fill="#0E85BD"/><path fill-rule="evenodd" clip-rule="evenodd" d="M469.131 216.689C471.041 218.762 470.91 221.99 468.837 223.9L453.547 237.994L454.339 271.717C454.405 274.534 452.175 276.872 449.357 276.938C446.54 277.004 444.202 274.774 444.136 271.956L443.29 235.926C443.255 234.459 443.854 233.048 444.933 232.054L461.92 216.396C463.993 214.486 467.221 214.617 469.131 216.689Z" fill="#1CB0F6"/><path fill-rule="evenodd" clip-rule="evenodd" d="M539.243 319.122L514.231 347.066C511.306 350.333 506.286 350.611 503.019 347.686C499.751 344.761 499.473 339.742 502.398 336.474L527.41 308.53C530.335 305.263 535.355 304.985 538.622 307.909C541.89 310.834 542.168 315.854 539.243 319.122Z" fill="#1CB0F6"/><path d="M455.666 312.796C439.701 288.376 446.554 255.637 470.974 239.672C495.394 223.706 528.133 230.56 544.098 254.98C560.064 279.4 553.21 312.138 528.79 328.104C504.37 344.069 471.632 337.216 455.666 312.796Z" fill="#1CB0F6"/><path d="M542.341 279.291C543.144 257.056 525.771 238.381 503.537 237.577C481.303 236.774 462.627 254.147 461.823 276.381C461.02 298.615 478.393 317.291 500.627 318.094C522.862 318.898 541.537 301.525 542.341 279.291Z" fill="#E18E70"/><path fill-rule="evenodd" clip-rule="evenodd" d="M528.08 287.196C521.614 288.679 515.119 284.415 513.571 277.672L512.663 273.712C511.115 266.968 515.102 260.299 521.568 258.816C528.033 257.332 534.529 261.596 536.076 268.339L536.985 272.299C538.532 279.043 534.545 285.712 528.08 287.196Z" fill="white"/><path fill-rule="evenodd" clip-rule="evenodd" d="M500.393 293.55C507.137 292.002 511.349 285.281 509.801 278.538L508.893 274.578C507.346 267.835 500.625 263.622 493.881 265.17C487.138 266.717 482.925 273.438 484.473 280.181L485.381 284.141C486.929 290.885 493.65 295.097 500.393 293.55Z" fill="white"/><path d="M496.013 297.025C508.774 298.79 519.048 305.053 522.666 312.426C519.089 314.588 515.113 316.226 510.818 317.211C501.437 319.362 492.071 318.048 484.059 314.108C481.131 312.774 477.889 312.349 474.676 313.086C471.458 313.824 468.721 315.623 466.667 318.106C465.903 319.028 464.413 319.038 463.938 317.939C463.005 315.782 462.643 313.54 462.953 311.296C463.472 307.546 465.796 304.311 469.363 301.835C475.511 297.567 485.353 295.55 496.013 297.025Z" fill="#3D3D3D"/><path fill-rule="evenodd" clip-rule="evenodd" d="M513.221 260.14C515.128 260.59 516.291 262.577 515.818 264.579C515.71 265.039 515.384 265.6 514.948 266.192L514.814 266.37C514.768 266.43 514.721 266.49 514.674 266.55L514.528 266.731L514.378 266.912C514.352 266.942 514.327 266.973 514.301 267.003L514.144 267.184L513.985 267.365L513.823 267.545L513.659 267.723L513.41 267.988L513.244 268.161L512.996 268.415L512.669 268.742L512.352 269.051L511.978 269.408L511.702 269.666L511.185 270.137L510.775 270.498L510.605 270.078L510.459 269.707L510.284 269.246L510.154 268.895L510.018 268.516L509.914 268.215L509.772 267.797L509.667 267.474L509.563 267.143L509.462 266.808L509.396 266.583L509.333 266.358L509.272 266.132L509.214 265.907L509.158 265.683C509.149 265.646 509.141 265.609 509.132 265.572L509.082 265.352C509.058 265.242 509.036 265.133 509.015 265.026L508.975 264.813C508.969 264.778 508.963 264.743 508.957 264.708L508.925 264.502C508.915 264.434 508.906 264.367 508.898 264.301L508.877 264.105C508.834 263.657 508.839 263.26 508.913 262.948C509.385 260.947 511.314 259.689 513.221 260.14Z" fill="#9A4E34"/><path d="M489.96 273.387C488.744 271.151 489.571 268.353 491.807 267.137C497.101 264.259 503.725 266.217 506.603 271.51C507.819 273.746 506.992 276.545 504.756 277.76C502.879 278.781 500.607 278.362 499.206 276.88C498.68 276.323 498.093 275.791 497.358 275.574C496.623 275.357 495.841 275.484 495.097 275.665C493.115 276.148 490.98 275.264 489.96 273.387Z" fill="#3D3D3D"/><path d="M517.083 267.056C515.867 264.82 516.694 262.022 518.93 260.806C524.224 257.928 530.848 259.886 533.726 265.179C534.942 267.415 534.115 270.213 531.879 271.429C530.002 272.449 527.73 272.031 526.329 270.548C525.803 269.991 525.216 269.46 524.481 269.242C523.746 269.025 522.964 269.152 522.22 269.334C520.238 269.816 518.103 268.932 517.083 267.056Z" fill="#3D3D3D"/><path fill-rule="evenodd" clip-rule="evenodd" d="M499.388 257.881C500.175 258.128 501.014 257.691 501.261 256.904C502.022 254.479 503.852 252.532 506.328 251.786C508.803 251.04 511.404 251.652 513.378 253.253C514.019 253.773 514.959 253.674 515.479 253.034C515.999 252.393 515.9 251.453 515.26 250.933C512.582 248.761 508.965 247.872 505.466 248.926C501.967 249.98 499.443 252.719 498.411 256.009C498.164 256.796 498.602 257.634 499.388 257.881Z" fill="#9E4D31"/><path d="M457.336 218.593C456.129 215.807 457.426 212.572 460.222 211.391C463.017 210.21 466.239 211.535 467.396 214.34L471.103 223.328C471.992 225.484 470.956 227.951 468.795 228.826C465.471 230.173 461.68 228.621 460.254 225.33L457.336 218.593Z" fill="#E18E70"/><path d="M557.524 204.693C558.452 203.85 558.665 202.472 558.036 201.387L551.806 190.648C551.239 189.67 549.913 189.464 549.077 190.225L545.491 193.485C544.872 194.048 544.73 194.966 545.149 195.689L551.739 207.049C552.306 208.027 553.632 208.232 554.468 207.472L557.524 204.693Z" fill="#E18E70"/><path d="M458.045 203.388L460.074 198.947L542.485 185.095L567.833 230.811L561.705 236.628C560.855 237.436 559.663 237.776 558.514 237.538L532.004 232.066L487.795 253.558C486.077 254.394 484.006 253.734 483.087 252.059L458.162 206.6C457.618 205.608 457.574 204.417 458.045 203.388Z" fill="#FFEBCE"/><path d="M537.396 226.258L566.716 232.917C568.985 233.432 570.792 231.017 569.657 228.986L544.213 183.44C543.842 182.775 543.205 182.299 542.462 182.131L508.426 174.4L537.396 226.258Z" fill="#DD5858"/><path d="M537.684 224.932C538.602 226.596 537.549 228.662 535.662 228.897L529.827 229.622C528.737 229.757 527.674 229.215 527.143 228.253L499.069 177.378C498.151 175.713 499.204 173.647 501.091 173.413L506.926 172.688C508.017 172.552 509.079 173.094 509.61 174.056L537.684 224.932Z" fill="#FF6464"/><path d="M484.052 246.282C484.746 247.52 486.282 248.005 487.56 247.39L527.593 228.148L498.897 176.953L459.169 196.049C457.771 196.721 457.231 198.433 457.989 199.785L484.052 246.282Z" fill="#FF6464"/><path d="M495.151 178.754L498.896 176.954L527.593 228.148L523.848 229.948L495.151 178.754Z" fill="#E85F5F"/><path d="M514.112 175.691L543.082 227.549L566.716 232.917C568.985 233.432 570.792 231.017 569.657 228.986L544.213 183.44C543.841 182.775 543.205 182.299 542.462 182.13L514.112 175.691Z" fill="#E85F5F"/><path d="M554.55 204.191C556.809 204.667 558.562 202.241 557.401 200.246L551.794 190.619C551.099 189.427 549.933 188.584 548.583 188.299L546.722 187.907C544.464 187.431 542.711 189.858 543.872 191.852L549.083 200.799C550.03 202.424 551.62 203.573 553.461 203.962L554.55 204.191Z" fill="#E18E70"/><path d="M546.437 196.256L547.355 197.833L552.181 198.94C552.539 199.022 552.896 198.798 552.978 198.44C553.06 198.082 552.837 197.725 552.478 197.642L546.437 196.256Z" fill="#9A4E34"/><path d="M543.55 191.003C543.605 191.289 543.711 191.574 543.872 191.852L544.27 192.534L550.591 193.985C550.949 194.067 551.307 193.843 551.389 193.485C551.471 193.127 551.247 192.77 550.889 192.687L543.55 191.003Z" fill="#9A4E34"/><path d="M457.693 219.317C456.293 216.14 457.769 212.432 460.97 211.086L465.102 209.348C466.811 208.629 468.785 209.346 469.634 210.994L473.477 218.453C474.412 220.27 473.625 222.5 471.756 223.326L466.34 225.72C463.648 226.91 460.501 225.69 459.315 222.997L457.693 219.317Z" fill="#E18E70"/><path d="M470.44 212.559L464.185 215.188C463.847 215.33 463.456 215.171 463.314 214.832C463.171 214.493 463.331 214.103 463.67 213.961L469.828 211.372L470.44 212.559Z" fill="#9A4E34"/><path d="M472.081 215.744L465.767 218.398C465.428 218.54 465.269 218.93 465.411 219.269C465.553 219.608 465.944 219.768 466.283 219.625L472.692 216.931L472.081 215.744Z" fill="#9A4E34"/><path fill-rule="evenodd" clip-rule="evenodd" d="M207.716 307.906C208.612 306.284 210.654 305.695 212.276 306.591L221.788 311.844C223.411 312.74 224 314.782 223.104 316.404C222.208 318.027 220.166 318.615 218.544 317.719L209.031 312.466C207.409 311.57 206.82 309.528 207.716 307.906Z" fill="#1CB0F6"/><path d="M211.926 301.091C211.926 303.665 214.012 305.751 216.585 305.751C219.159 305.751 221.245 303.665 221.245 301.091L211.926 301.091ZM221.245 284.994C221.245 282.42 219.159 280.334 216.585 280.334C214.012 280.334 211.926 282.42 211.926 284.993L221.245 284.994ZM221.245 301.091L221.245 284.994L211.926 284.993L211.926 301.091L221.245 301.091Z" fill="#FF2D38"/><rect x="357.18" y="350.259" width="93.3671" height="29.1163" rx="14.5582" transform="rotate(0.134289 357.18 350.259)" fill="#FF83CD"/><rect x="369.625" y="350.288" width="80.9214" height="29.1163" rx="14.5582" transform="rotate(0.134289 369.625 350.288)" fill="#FFA8DC"/><rect x="382.041" y="350.317" width="68.5054" height="29.1163" rx="14.5582" transform="rotate(0.134289 382.041 350.317)" fill="#FF83CD"/><path d="M403.474 364.833C403.487 359.281 407.998 354.791 413.55 354.804L450.536 354.891L450.489 374.996L413.503 374.909C407.951 374.896 403.461 370.385 403.474 364.833Z" fill="#F5F5F5"/><path d="M451.782 353.442L412.354 353.33C405.947 353.312 400.739 358.493 400.724 364.9V364.9C400.709 371.303 405.886 376.506 412.289 376.524L451.727 376.636" stroke="#FFA8DC" stroke-width="5.79861" stroke-linecap="round"/><path d="M443.001 360.219L444.316 360.219L444.316 362.85L443.001 362.85L443.001 360.219ZM417.178 362.85C416.452 362.85 415.863 362.261 415.863 361.535C415.863 360.808 416.452 360.219 417.178 360.219L417.178 362.85ZM443.001 362.85L417.178 362.85L417.178 360.219L443.001 360.219L443.001 362.85Z" fill="#ECE4E4"/><path d="M443.001 367.89L410.113 367.792" stroke="#ECE4E4" stroke-width="2.63065" stroke-linecap="round"/><rect width="90.0561" height="15.7598" rx="7.8799" transform="matrix(-0.936976 0.349395 0.349395 0.936976 393.827 329.448)" fill="#F5F5F5"/><rect width="45.028" height="15.7598" transform="matrix(-0.936976 0.349395 0.349395 0.936976 350.583 345.575)" fill="#ECE4E4"/><path d="M350.19 344.52L308 360.252M313.899 376.074L356.09 360.341" stroke="#0086CD" stroke-width="6.7542" stroke-linecap="round"/><line x1="352.562" y1="352.318" x2="371.548" y2="345.238" stroke="#ECE4E4" stroke-width="3.3771" stroke-linecap="round"/><path d="M350.19 344.519L386.579 330.95C390.948 329.321 395.81 331.542 397.44 335.911V335.911C399.069 340.28 396.848 345.142 392.479 346.771L356.09 360.34" stroke="#00A0F5" stroke-width="6.7542" stroke-linecap="round"/><path d="M216.586 288.666C219.159 288.666 221.245 286.58 221.245 284.007C221.245 281.434 219.159 279.348 216.586 279.348V288.666ZM197.481 288.666H216.586V279.348H197.481V288.666Z" fill="#FF2D38"/><path d="M262.085 234.358C264.09 233.215 266.501 234.99 266.004 237.244L263.606 248.124C263.309 249.471 262.456 250.63 261.257 251.313L259.606 252.255C257.601 253.398 255.19 251.623 255.687 249.369L257.915 239.259C258.32 237.421 259.484 235.841 261.118 234.909L262.085 234.358Z" fill="#A56644"/><path d="M256.784 244.392L257.177 242.61L261.433 240.082C261.749 239.894 262.158 239.998 262.345 240.314C262.533 240.63 262.429 241.039 262.113 241.226L256.784 244.392Z" fill="#80411F"/><path d="M255.64 250.275C255.605 249.987 255.618 249.682 255.687 249.369L255.857 248.597L261.433 245.285C261.749 245.098 262.158 245.202 262.345 245.518C262.533 245.834 262.429 246.242 262.113 246.43L255.64 250.275Z" fill="#80411F"/><path d="M100.373 303.92H127.191V361.442C127.191 368.848 121.188 374.851 113.782 374.851C106.376 374.851 100.373 368.848 100.373 361.442V303.92Z" fill="#FF2D38"/><path fill-rule="evenodd" clip-rule="evenodd" d="M79.8657 359.847C81.964 358.422 82.5099 355.566 81.085 353.467L59.7198 322.005C58.2949 319.906 55.4388 319.36 53.3406 320.785C51.2423 322.21 50.6964 325.066 52.1212 327.164L73.4865 358.627C74.9113 360.726 77.7674 361.271 79.8657 359.847Z" fill="#EE9583"/><path d="M24.12 324.774C23.0666 325.455 22.6314 326.779 23.0752 327.952L27.4685 339.565C27.8687 340.622 29.1427 341.041 30.0923 340.427L34.1624 337.796C34.8646 337.342 35.1548 336.459 34.8589 335.677L30.212 323.394C29.8119 322.337 28.5379 321.918 27.5882 322.532L24.12 324.774Z" fill="#FFC3B3"/><path fill-rule="evenodd" clip-rule="evenodd" d="M56.4189 319.617C53.8989 319.33 51.6234 321.141 51.3365 323.661L47.0351 361.448C46.7482 363.968 48.5586 366.244 51.0786 366.531C53.5987 366.817 55.8742 365.007 56.161 362.487L60.4625 324.7C60.7494 322.18 58.939 319.904 56.4189 319.617Z" fill="#FFC3B3"/><path d="M50.1719 333.889L47.0347 361.448C46.7478 363.968 48.5582 366.244 51.0783 366.53C53.5983 366.817 55.8738 365.007 56.1607 362.487L59.2979 334.927L50.1719 333.889Z" fill="#D8D8D8"/><path d="M125.047 204.371C121.426 204.868 118.179 206.343 115.537 208.493C114.467 209.293 113.186 209.841 111.769 210.035C108.724 210.453 105.842 209.13 104.126 206.83C97.6898 197.728 86.5278 192.439 74.7205 194.059C57.8376 196.374 46.0286 211.938 48.3444 228.821C50.6601 245.704 66.2237 257.513 83.1066 255.197L130.273 242.467C140.793 241.024 148.151 231.326 146.708 220.806C145.265 210.286 135.567 202.928 125.047 204.371Z" fill="#FFAE00"/><path fill-rule="evenodd" clip-rule="evenodd" d="M50.4535 289.365C50.2112 289.765 50.1623 290.253 50.3205 290.693C53.5056 299.554 62.5987 305.273 72.3533 303.935C82.108 302.597 89.3252 294.641 90.0067 285.249C90.0405 284.783 89.8621 284.326 89.521 284.006C89.18 283.686 88.7128 283.538 88.2495 283.601L51.5689 288.632C51.1057 288.696 50.6958 288.965 50.4535 289.365Z" fill="#FFAE00"/><path fill-rule="evenodd" clip-rule="evenodd" d="M123.881 279.293C123.638 279.693 123.59 280.181 123.748 280.621C126.933 289.482 136.026 295.202 145.781 293.864C155.535 292.526 162.752 284.569 163.434 275.178C163.468 274.711 163.289 274.255 162.948 273.935C162.607 273.615 162.14 273.466 161.677 273.529L124.996 278.561C124.533 278.624 124.123 278.893 123.881 279.293Z" fill="#FFAE00"/><path fill-rule="evenodd" clip-rule="evenodd" d="M143.328 276.673L64.9846 287.419L67.3445 304.623L145.688 293.877L143.328 276.673Z" fill="#FFAE00"/><path fill-rule="evenodd" clip-rule="evenodd" d="M146.896 234.24L56.2644 246.671L62.6698 293.37L153.302 280.938L146.896 234.24Z" fill="#FFAE00"/><path fill-rule="evenodd" clip-rule="evenodd" d="M129.174 235.105L53.5959 245.472L60.6756 297.086C61.9091 306.079 70.0826 312.386 78.9316 311.172L122.464 305.201C131.313 303.987 137.487 295.713 136.254 286.72L129.174 235.105Z" fill="#FFC3B3"/><path d="M127.561 268.975C128.247 273.981 132.861 277.482 137.867 276.795C142.872 276.109 146.374 271.494 145.687 266.489C145 261.484 140.386 257.982 135.381 258.669C130.375 259.356 126.874 263.97 127.561 268.975Z" fill="#FFC3B3"/><path d="M51.6744 279.384C52.3609 284.39 56.9753 287.891 61.9807 287.205C66.9862 286.518 70.4874 281.904 69.8008 276.898C69.1142 271.893 64.4999 268.392 59.4944 269.078C54.4889 269.765 50.9878 274.379 51.6744 279.384Z" fill="#FFC3B3"/><path fill-rule="evenodd" clip-rule="evenodd" d="M73.1952 255.532C79.7857 254.628 85.8613 259.238 86.7652 265.829L87.2961 269.699C88.2001 276.289 83.5903 282.365 76.9997 283.269C70.4092 284.173 64.3336 279.563 63.4296 272.972L62.8988 269.102C61.9948 262.512 66.6046 256.436 73.1952 255.532Z" fill="white"/><path fill-rule="evenodd" clip-rule="evenodd" d="M146.138 228.71L53.0482 241.479L54.6075 252.846L147.697 240.077L146.138 228.71Z" fill="#FF2D38"/><path fill-rule="evenodd" clip-rule="evenodd" d="M101.917 251.593C108.507 250.689 114.583 255.299 115.487 261.889L116.018 265.759C116.922 272.35 112.312 278.425 105.721 279.329C99.1308 280.233 93.0553 275.624 92.1513 269.033L91.6204 265.163C90.7164 258.572 95.3263 252.497 101.917 251.593Z" fill="white"/><path fill-rule="evenodd" clip-rule="evenodd" d="M85.7368 284.109C83.6752 283.268 82.6827 280.923 83.5199 278.87C83.6357 278.586 83.8448 278.278 84.1191 277.957L84.2502 277.808C84.3406 277.708 84.4367 277.608 84.5378 277.506L84.6931 277.354C84.746 277.303 84.8 277.252 84.8551 277.201L85.0234 277.047L85.1973 276.894C85.2267 276.868 85.2563 276.842 85.2861 276.817L85.4672 276.663C85.4978 276.638 85.5285 276.612 85.5593 276.587L85.7463 276.434L85.9364 276.283L86.1291 276.132L86.3237 275.984L86.5196 275.836L86.7162 275.691L87.011 275.478L87.304 275.27L87.5931 275.069L87.8761 274.876L88.2407 274.633L88.6687 274.353L89.1291 274.06L89.5722 273.785L90.0701 273.485L90.2057 274.005L90.3402 274.552L90.4383 274.971L90.5217 275.341L90.5859 275.636L90.6724 276.05L90.7156 276.264L90.7795 276.593L90.8418 276.93L90.8821 277.158L90.94 277.503L90.9944 277.851L91.0444 278.2L91.075 278.433L91.1031 278.664L91.1285 278.893C91.1324 278.932 91.1363 278.97 91.1401 279.008L91.161 279.234C91.1674 279.309 91.1733 279.383 91.1786 279.457L91.1927 279.677C91.1969 279.75 91.2003 279.822 91.2032 279.893L91.2097 280.105C91.2105 280.14 91.211 280.174 91.2114 280.209L91.2117 280.413C91.2113 280.446 91.2108 280.479 91.2101 280.512L91.2035 280.707C91.1811 281.185 91.1137 281.601 90.9855 281.915C90.1483 283.968 87.7983 284.95 85.7368 284.109Z" fill="#EE9583"/><path d="M66.582 269.026C64.2511 270.386 64.5102 273.839 65.9349 276.428C67.6315 279.511 70.214 281.51 73.1127 281.962C76.033 282.417 78.3092 281.457 79.1315 279.633C79.8943 277.94 79.5249 275.262 76.0347 273.029L75.0715 272.372C74.5789 272.072 74.1277 271.708 73.7291 271.292L72.721 270.311C70.7926 268.662 68.6166 267.838 66.582 269.026Z" fill="#3D3D3D"/><circle r="3.29816" transform="matrix(-0.306731 0.951796 0.951796 0.306731 72.6139 269.612)" fill="white"/><path d="M95.1581 264.785C92.8273 266.145 93.0864 269.597 94.5111 272.187C96.2077 275.27 98.7901 277.268 101.689 277.721C104.609 278.176 106.885 277.216 107.708 275.392C108.47 273.699 108.101 271.021 104.611 268.788L103.648 268.13C103.155 267.83 102.704 267.467 102.305 267.05L101.297 266.07C99.3687 264.42 97.1928 263.597 95.1581 264.785Z" fill="#3D3D3D"/><circle r="3.29816" transform="matrix(-0.306731 0.951796 0.951796 0.306731 101.19 265.371)" fill="white"/><path d="M102.471 284.515C98.591 291.019 90.1726 293.146 83.6682 289.266" stroke="#EE9583" stroke-width="2.86611" stroke-linecap="round" stroke-linejoin="round"/><circle cx="115.862" cy="286.396" r="17.9846" transform="rotate(-7.81028 115.862 286.396)" fill="#FFC3B3"/><path d="M100.514 298.306C101.002 298.935 101.908 299.049 102.538 298.561C103.167 298.073 103.281 297.167 102.793 296.537L100.514 298.306ZM118.438 270.055C119.225 270.179 119.963 269.642 120.087 268.855C120.211 268.068 119.673 267.33 118.887 267.206L118.438 270.055ZM102.793 296.537C97.1919 289.319 98.5028 278.928 105.721 273.327L103.952 271.048C95.476 277.626 93.9365 289.829 100.514 298.306L102.793 296.537ZM105.721 273.327C109.475 270.414 114.085 269.37 118.438 270.055L118.887 267.206C113.78 266.402 108.361 267.627 103.952 271.048L105.721 273.327Z" fill="#EE9583"/><path fill-rule="evenodd" clip-rule="evenodd" d="M159.984 323.202C159.983 325.745 157.922 327.805 155.38 327.804L131.794 327.804C129.252 327.803 127.192 325.742 127.193 323.199C127.193 320.657 129.255 318.597 131.797 318.598L155.383 318.598C157.925 318.598 159.985 320.66 159.984 323.202Z" fill="#FF2D38"/><path fill-rule="evenodd" clip-rule="evenodd" d="M120.534 301.489C121.863 299.322 124.698 298.644 126.865 299.974L157.736 318.919C159.903 320.248 160.581 323.083 159.252 325.25C157.922 327.416 155.088 328.095 152.921 326.765L122.049 307.82C119.883 306.491 119.204 303.656 120.534 301.489Z" fill="#FF2D38"/><path fill-rule="evenodd" clip-rule="evenodd" d="M132.153 324.832C133.201 324.858 134.073 324.03 134.099 322.981C134.135 321.566 133.868 319.428 132.89 317.518C131.874 315.535 130.015 313.695 126.98 313.424C125.935 313.331 125.013 314.103 124.92 315.147C124.827 316.192 125.598 317.115 126.643 317.208C128.063 317.335 128.928 318.116 129.508 319.249C130.126 320.455 130.326 321.926 130.302 322.885C130.275 323.934 131.104 324.805 132.153 324.832Z" fill="#FFC3B3"/><path fill-rule="evenodd" clip-rule="evenodd" d="M133.797 323.912C134.522 323.155 134.496 321.952 133.738 321.227C132.716 320.249 130.955 319.007 128.883 318.445C126.733 317.862 124.121 317.999 121.879 320.061C121.107 320.771 121.056 321.973 121.766 322.745C122.477 323.517 123.678 323.567 124.45 322.857C125.5 321.892 126.66 321.778 127.889 322.111C129.196 322.466 130.419 323.308 131.112 323.971C131.87 324.697 133.072 324.67 133.797 323.912Z" fill="#FFC3B3"/><path fill-rule="evenodd" clip-rule="evenodd" d="M136.188 323.38C136.414 322.356 135.766 321.342 134.742 321.117C133.36 320.813 131.21 320.668 129.148 321.265C127.009 321.885 124.848 323.36 124.005 326.287C123.715 327.295 124.297 328.348 125.305 328.638C126.313 328.928 127.365 328.347 127.656 327.339C128.05 325.968 128.982 325.268 130.205 324.914C131.506 324.537 132.989 324.621 133.925 324.827C134.95 325.052 135.963 324.405 136.188 323.38Z" fill="#FFC3B3"/><path d="M140.899 327.798L131.73 327.795C129.188 327.794 127.128 325.733 127.128 323.19C127.129 320.648 129.191 318.588 131.733 318.589L140.874 318.592L140.899 327.798Z" fill="#FFC3B3"/><path d="M122.777 343.938L120.136 347.991L37.3476 349.456L19.2269 300.935L26.0855 296.136C27.0376 295.47 28.2555 295.311 29.3462 295.713L54.5188 304.97L100.996 290.406C102.803 289.84 104.735 290.791 105.389 292.567L123.134 340.774C123.521 341.826 123.389 342.999 122.777 343.938Z" fill="#FFEBCE"/><path d="M48.382 309.869L20.6302 299.036C18.4829 298.198 16.3575 300.299 17.1708 302.456L35.4111 350.823C35.6775 351.53 36.2311 352.09 36.9342 352.364L69.1501 364.94L48.382 309.869Z" fill="#119ADA"/><path d="M47.9057 311.126C47.2502 309.36 48.5858 307.49 50.469 307.538L56.2935 307.685C57.3818 307.712 58.3437 308.4 58.7224 309.42L78.7559 363.397C79.4114 365.163 78.0758 367.033 76.1926 366.985L70.3681 366.838C69.2798 366.811 68.3179 366.123 67.9392 365.103L47.9057 311.126Z" fill="#1CB0F6"/><path d="M103.595 298.085C103.097 296.771 101.663 296.07 100.32 296.484L58.266 309.458L78.8631 363.838L120.597 350.963C122.065 350.511 122.846 348.913 122.302 347.476L103.595 298.085Z" fill="#1CB0F6"/><path d="M82.7968 362.624L78.8627 363.838L58.2656 309.458L62.1998 308.244L82.7968 362.624Z" fill="#119ADA"/><path d="M63.7683 362.839L43.0002 307.768L20.6302 299.036C18.4829 298.198 16.3574 300.299 17.1708 302.455L35.4111 350.823C35.6775 351.53 36.231 352.09 36.9342 352.364L63.7683 362.839Z" fill="#15A2E4"/><path fill-rule="evenodd" clip-rule="evenodd" d="M60.3939 365.911C61.656 364.215 64.0536 363.864 65.749 365.126L75.227 372.182C76.9225 373.444 77.2737 375.842 76.0116 377.537C74.7494 379.233 72.3519 379.584 70.6565 378.322L61.1784 371.266C59.483 370.004 59.1318 367.606 60.3939 365.911Z" fill="#FF2D38"/><path fill-rule="evenodd" clip-rule="evenodd" d="M33.7115 364.389C35.1717 362.861 37.5942 362.806 39.1224 364.266L47.6651 372.429C49.1932 373.89 49.2482 376.312 47.788 377.84C46.3278 379.368 43.9052 379.423 42.3771 377.963L33.8344 369.8C32.3063 368.34 32.2512 365.917 33.7115 364.389Z" fill="#FF2D38"/><path fill-rule="evenodd" clip-rule="evenodd" d="M104.02 329.575C102.011 328.026 99.1277 328.4 97.5793 330.409L74.3627 360.531C72.8143 362.54 73.1877 365.424 75.1966 366.972C77.2055 368.52 80.0892 368.147 81.6375 366.138L104.854 336.016C106.403 334.007 106.029 331.123 104.02 329.575Z" fill="#FFC3B3"/><path d="M91.2949 338.562L74.3624 360.531C72.814 362.54 73.1874 365.424 75.1963 366.972C77.2052 368.52 80.0889 368.147 81.6373 366.138L98.5698 344.169L91.2949 338.562Z" fill="#D8D8D8"/><path d="M26.9716 325.755C24.8211 324.916 22.6953 327.025 23.5158 329.182L27.4761 339.595C27.9665 340.885 28.9798 341.907 30.2652 342.408L32.0365 343.099C34.1869 343.937 36.3128 341.829 35.4923 339.672L31.8121 329.995C31.1433 328.236 29.7615 326.843 28.0087 326.159L26.9716 325.755Z" fill="#FFC3B3"/><path d="M33.6804 334.908L33.0319 333.202L28.4522 331.322C28.1121 331.183 27.7232 331.345 27.5836 331.685C27.444 332.025 27.6066 332.414 27.9466 332.554L33.6804 334.908Z" fill="#EE9583"/><path d="M35.6714 340.561C35.6634 340.271 35.6063 339.972 35.4922 339.672L35.2114 338.933L29.2115 336.47C28.8715 336.331 28.4826 336.493 28.343 336.833C28.2034 337.173 28.3659 337.562 28.706 337.702L35.6714 340.561Z" fill="#EE9583"/><path d="M120.289 367.686C121.371 369.979 120.505 371.272 118.211 372.355C115.917 373.437 113.065 373.9 111.983 371.606L103.905 354.492L112.154 350.45L120.289 367.686Z" fill="#EA0000"/><circle cx="125.307" cy="338.395" r="6.04146" fill="white"/><circle cx="116.713" cy="340.114" r="6.04146" fill="white"/><circle cx="108.119" cy="339.874" r="6.04146" fill="white"/><circle cx="99.5254" cy="341.593" r="6.04146" fill="white"/><circle cx="151.089" cy="341.593" r="6.04146" fill="white"/><circle cx="142.496" cy="339.874" r="6.04146" fill="white"/><circle cx="133.901" cy="340.114" r="6.04146" fill="white"/><path d="M90.6284 341.513C90.6284 340.608 91.3619 339.875 92.2668 339.875H158.348C159.252 339.875 159.986 340.608 159.986 341.513V351.037C159.986 366.419 147.516 378.889 132.134 378.889H118.481C103.098 378.889 90.6284 366.419 90.6284 351.037V341.513Z" fill="#89E219"/><path d="M159.983 351.465H90.6316C90.6295 351.322 90.6284 351.18 90.6284 351.037V341.513C90.6284 340.608 91.3619 339.875 92.2668 339.875H158.348C159.252 339.875 159.986 340.608 159.986 341.513V351.037C159.986 351.18 159.985 351.322 159.983 351.465Z" fill="#58CC02"/><path d="M163.546 262.464C163.546 254.622 169.903 248.264 177.746 248.264H190.392C198.235 248.264 204.592 254.622 204.592 262.464V357.267H163.546V262.464Z" fill="#606060"/><path d="M269.463 378.047H224.57V358.259H269.463C271.436 358.259 272.971 359.849 272.971 361.767V374.485C272.971 376.458 271.382 378.047 269.463 378.047Z" fill="#CE82FF"/><path d="M237.177 374.484V361.766C237.177 359.793 235.587 358.258 233.668 358.258H241.123C243.097 358.258 244.631 359.848 244.631 361.766V374.484C244.631 376.457 243.042 377.992 241.123 377.992H233.668C235.587 378.047 237.177 376.457 237.177 374.484Z" fill="#9069CD"/><path d="M185.323 360.999H224.899V375.635H185.323V360.999Z" fill="white"/><path d="M184.829 378.047H224.57C226.324 378.047 227.695 376.622 227.695 374.922V361.438C227.695 359.684 226.27 358.313 224.57 358.313H184.829C183.843 358.313 183.021 359.136 183.021 360.122C183.021 361.109 183.843 361.931 184.829 361.931H224.022V374.374H184.829C183.843 374.374 183.021 375.197 183.021 376.183C183.021 377.225 183.843 378.047 184.829 378.047Z" fill="#9069CD"/><path d="M185.871 366.864H215.361C215.964 366.864 216.458 366.371 216.458 365.768C216.458 365.165 215.964 364.672 215.361 364.672H185.871C185.268 364.672 184.774 365.165 184.774 365.768C184.829 366.371 185.268 366.864 185.871 366.864Z" fill="#EDEBF0"/><path d="M197.547 371.469H217.006C217.609 371.469 218.103 370.976 218.103 370.373C218.103 369.77 217.609 369.277 217.006 369.277H197.547C196.944 369.277 196.451 369.77 196.451 370.373C196.451 370.976 196.944 371.469 197.547 371.469Z" fill="#EDEBF0"/><path d="M183.951 336.332H218.227V323.429H183.951C182.523 323.429 181.391 324.562 181.391 325.99V333.82C181.391 335.199 182.572 336.332 183.951 336.332Z" fill="#FA8F19"/><path d="M196.214 333.771V325.99C196.214 324.562 197.347 323.429 198.775 323.429H195.771C194.343 323.429 193.21 324.562 193.21 325.99V333.82C193.21 335.248 194.343 336.381 195.771 336.381H198.775C197.347 336.332 196.214 335.199 196.214 333.771Z" fill="#FAA519"/><path d="M190.008 333.771V325.99C190.008 324.562 191.141 323.429 192.569 323.429H189.565C188.137 323.429 187.004 324.562 187.004 325.99V333.82C187.004 335.248 188.137 336.381 189.565 336.381H192.569C191.141 336.332 190.008 335.199 190.008 333.771Z" fill="#FAA519"/><path d="M258.483 334.584H217.975V325.375H258.483V334.584Z" fill="white"/><path d="M259.406 336.332H218.228C216.947 336.332 215.962 335.298 215.962 334.067V325.695C215.962 324.415 216.996 323.43 218.228 323.43H259.406C260.144 323.43 260.735 324.021 260.735 324.759C260.735 325.498 260.144 326.089 259.406 326.089H218.622V333.722H259.406C260.144 333.722 260.735 334.313 260.735 335.052C260.735 335.741 260.144 336.332 259.406 336.332Z" fill="#FAA519"/><path d="M230.805 330.619H251.784C252.227 330.619 252.572 330.964 252.572 331.407C252.572 331.851 252.227 332.195 251.784 332.195H230.805C230.362 332.195 230.017 331.851 230.017 331.407C230.017 330.964 230.362 330.619 230.805 330.619Z" fill="#EDEBF0"/><path d="M244.594 327.32H258.284C258.728 327.32 259.072 327.665 259.072 328.108C259.072 328.551 258.728 328.896 258.284 328.896H244.594C244.151 328.896 243.806 328.551 243.806 328.108C243.806 327.665 244.2 327.32 244.594 327.32Z" fill="#EDEBF0"/><path d="M222.261 327.32H235.951C236.395 327.32 236.739 327.665 236.739 328.108C236.739 328.551 236.395 328.896 235.951 328.896H222.261C221.818 328.896 221.473 328.551 221.473 328.108C221.473 327.665 221.867 327.32 222.261 327.32Z" fill="#EDEBF0"/><path d="M188.202 336.271H235.719C229.996 336.271 224.934 340.508 224.383 346.231C223.778 352.724 228.895 358.227 235.224 358.282H188.202C182.149 358.282 177.196 353.33 177.196 347.277C177.196 341.224 182.149 336.271 188.202 336.271Z" fill="#51AF13"/><path d="M183.636 346.231C184.186 340.508 189.249 336.271 194.972 336.271H199.594C193.871 336.271 188.809 340.508 188.258 346.231C187.653 352.724 192.77 358.226 199.099 358.281H194.476C188.093 358.226 183.031 352.669 183.636 346.231Z" fill="#78C802"/><path d="M235.058 354.43C231.096 354.43 227.849 351.183 227.849 347.221C227.849 343.26 231.096 340.013 235.058 340.013H269.56V354.375H235.058V354.43Z" fill="white"/><path d="M235.059 354.43C230.822 354.43 227.41 350.688 227.905 346.341C228.346 342.709 231.647 340.068 235.334 340.068C243.863 340.068 264.498 340.068 270.881 340.068C271.927 340.068 272.807 339.188 272.807 338.142C272.807 337.096 271.927 336.216 270.881 336.216H235.444C229.721 336.216 224.659 340.453 224.109 346.176C223.503 352.724 228.676 358.227 235.059 358.227H270.881C271.927 358.227 272.807 357.346 272.807 356.301C272.807 355.255 271.927 354.375 270.881 354.375H235.059V354.43Z" fill="#78C802"/><path d="M247.88 345.901H267.414C268.019 345.901 268.515 345.406 268.515 344.8C268.515 344.195 268.019 343.7 267.414 343.7H247.88C247.274 343.7 246.779 344.195 246.779 344.8C246.779 345.406 247.274 345.901 247.88 345.901Z" fill="#EDEBF0"/><path d="M238.249 350.633H267.358C267.964 350.633 268.459 350.138 268.459 349.532C268.459 348.927 267.964 348.432 267.358 348.432H238.249C237.644 348.432 237.149 348.927 237.149 349.532C237.204 350.138 237.699 350.633 238.249 350.633Z" fill="#EDEBF0"/><path d="M246.144 366.198L249.006 364.602C249.281 364.437 249.666 364.437 249.941 364.602L252.803 366.198C253.738 366.748 254.894 366.033 254.894 364.932L254.893 348.432H243.998L243.998 364.932C244.054 366.033 245.209 366.693 246.144 366.198Z" fill="#EF4849"/><path d="M244.054 348.432H254.949V350.578H244.054V348.432Z" fill="#DC3D3E"/></g><defs><clipPath id="clip0_345_46462"><rect width="585" height="411" fill="white"/></clipPath></defs></svg>